<?xml version="1.0" ?>
<!DOCTYPE svg  PUBLIC '-//W3C//DTD SVG 1.1//EN'  'http://www.w3.org/Graphics/SVG/1.1/DTD/svg11.dtd'>
<!-- Uploaded to: SVG Repo, www.svgrepo.com, Generator: SVG Repo Mixer Tools -->
<svg fill="#000000" width="800px" height="800px" viewBox="0 0 512 512" version="1.1" xml:space="preserve" xmlns="http://www.w3.org/2000/svg" xmlns:xlink="http://www.w3.org/1999/xlink">
<g id="A_-_72_x2C__money_x2C__fund_x2C__search_x2C__loan_x2C__dollar">
<g>
<path d="M249.762,188.537c-0.875,1.269-1.316,2.633-1.316,4.092c0,1.269,0.389,2.533,1.22,3.703c0.78,1.168,2,2.047,3.603,2.726    v-13.052C251.813,186.495,250.592,187.369,249.762,188.537z"/>
<path d="M258.826,211.528v14.906c1.898-0.389,3.455-1.364,4.625-2.727c1.221-1.463,1.801-3.023,1.801-4.97    c0-1.654-0.484-3.118-1.506-4.382C262.767,213.186,261.113,212.211,258.826,211.528z"/>
<path d="M255.996,153.047c-30.257,0-54.875,24.618-54.875,54.878c0,30.258,24.617,54.875,54.875,54.875    c30.262,0,54.883-24.618,54.883-54.875C310.879,177.666,286.258,153.047,255.996,153.047z M270.413,228.967    c-2.771,3.117-6.667,5.065-11.587,5.845v7.109h-5.558v-7.015c-4.33-0.584-7.889-2.143-10.617-4.871    c-2.727-2.728-4.477-6.524-5.255-11.495l9.879-1.169c0.442,2.048,1.169,3.802,2.295,5.26c1.116,1.464,2.337,2.533,3.697,3.118    v-15.877c-4.919-1.363-8.573-3.507-10.858-6.429c-2.287-2.828-3.456-6.334-3.456-10.426c0-4.091,1.308-7.598,3.94-10.42    c2.581-2.827,6.044-4.481,10.374-4.871v-3.701h5.558v3.701c4.037,0.485,7.257,1.848,9.638,4.091    c2.391,2.238,3.897,5.355,4.581,9.157l-9.645,1.169c-0.634-2.922-2.141-4.97-4.574-6.039v14.806    c6.089,1.655,10.228,3.798,12.469,6.43c2.191,2.628,3.31,5.941,3.31,10.032C274.604,221.954,273.192,225.85,270.413,228.967z"/>
<path d="M255.996,388.792c-3.749,0-6.799,3.03-6.799,6.754c0,3.776,3.05,6.85,6.799,6.85c3.754,0,6.807-3.073,6.807-6.85    C262.803,391.822,259.75,388.792,255.996,388.792z"/>
<path d="M277.965,324.311c-0.623-2.318-2.605-4.08-4.912-4.492c-0.017-0.004-0.034-0.005-0.051-0.008    c-0.32-0.054-0.647-0.085-0.979-0.085H240.02c-0.035,0-0.07,0.004-0.104,0.005c-0.275,0.003-0.547,0.03-0.816,0.071    c-0.071,0.011-0.142,0.02-0.212,0.032c-0.286,0.055-0.567,0.127-0.841,0.221c-0.038,0.013-0.075,0.028-0.112,0.042    c-0.598,0.219-1.162,0.527-1.667,0.913c-0.009,0.008-0.019,0.014-0.028,0.021c-0.241,0.188-0.467,0.396-0.68,0.616    c-0.041,0.042-0.081,0.087-0.12,0.132c-0.159,0.174-0.306,0.36-0.443,0.552c-0.099,0.138-0.19,0.28-0.277,0.428    c-0.058,0.097-0.114,0.194-0.167,0.294c-0.444,0.852-0.699,1.817-0.699,2.844v84.262c0,3.402,2.766,6.17,6.167,6.17h32.003    c3.401,0,6.166-2.768,6.166-6.17v-84.262c0-0.51-0.068-1.004-0.186-1.478C277.992,324.382,277.975,324.349,277.965,324.311z     M255.996,408.955c-7.366,0-13.358-6.015-13.358-13.409c0-7.341,5.992-13.313,13.358-13.313c7.372,0,13.368,5.973,13.368,13.313    C269.363,402.94,263.367,408.955,255.996,408.955z"/>
<path d="M263.34,289.076c-0.736,0.068-1.475,0.122-2.217,0.17c-0.479,0.03-0.953,0.064-1.434,0.087    c-1.068,0.048-2.141,0.076-3.213,0.081c-0.161,0.001-0.32,0.013-0.48,0.013c-0.258,0-0.514-0.017-0.771-0.02    c-0.938-0.01-1.876-0.029-2.813-0.071c-0.587-0.026-1.17-0.068-1.753-0.106c-0.603-0.04-1.205-0.084-1.806-0.138    c-0.711-0.063-1.418-0.135-2.125-0.217c-0.333-0.039-0.664-0.083-0.996-0.127c-0.863-0.109-1.725-0.224-2.58-0.36v9.354v15.424    h25.686v-15.424v-9.354c-0.751,0.12-1.509,0.222-2.266,0.321c-0.494,0.066-0.987,0.132-1.483,0.189    C264.507,288.964,263.925,289.022,263.34,289.076z"/>
<path d="M43.752,95.672V320.18h184.874c1.355-2.691,3.622-4.785,6.337-5.96c0.046-0.021,0.091-0.044,0.136-0.063    c0.298-0.125,0.603-0.231,0.912-0.334c0.106-0.034,0.209-0.074,0.316-0.105c0.09-0.027,0.175-0.064,0.265-0.09v-12.605H104.229    c-1.812,0-3.28-1.468-3.28-3.279c0-18.926-15.375-34.323-34.274-34.323c-1.812,0-3.28-1.468-3.28-3.28V155.711    c0-1.812,1.469-3.28,3.28-3.28c18.899,0,34.274-15.354,34.274-34.227c0-1.812,1.468-3.28,3.28-3.28h303.585    c1.811,0,3.279,1.468,3.279,3.28c0,18.873,15.355,34.227,34.231,34.227c1.812,0,3.28,1.468,3.28,3.28v104.427    c0,1.813-1.469,3.28-3.28,3.28c-18.876,0-34.231,15.397-34.231,34.323c0,1.812-1.469,3.279-3.279,3.279H275.398v12.604    c0.043,0.011,0.082,0.029,0.125,0.042c0.33,0.095,0.653,0.205,0.973,0.326c0.074,0.027,0.15,0.053,0.225,0.082    c0.386,0.153,0.764,0.326,1.131,0.517c0.008,0.003,0.013,0.006,0.02,0.01c2.371,1.232,4.302,3.19,5.508,5.578h184.869V95.672    H43.752z"/>
<path d="M442.045,256.99v-98.13c-19.883-1.588-35.791-17.496-37.38-37.376H107.378c-1.591,19.882-17.518,35.789-37.424,37.376    v98.129c19.909,1.592,35.837,17.539,37.425,37.473h129.214v-7.419c-30.638-7.629-54.366-32.889-59.787-64.348    c-0.013-0.07-0.025-0.14-0.039-0.21c-0.152-0.901-0.288-1.807-0.411-2.718c-0.055-0.404-0.105-0.809-0.155-1.214    c-0.085-0.722-0.167-1.445-0.234-2.172c-0.062-0.668-0.108-1.34-0.152-2.012c-0.036-0.534-0.08-1.066-0.104-1.603    c-0.06-1.251-0.095-2.508-0.095-3.771c0-44.295,36.058-80.332,80.38-80.332c44.327,0,80.387,36.037,80.387,80.332    c0,1.263-0.035,2.52-0.095,3.771c-0.024,0.537-0.067,1.07-0.104,1.604c-0.045,0.672-0.09,1.343-0.152,2.012    c-0.066,0.727-0.148,1.448-0.234,2.169c-0.049,0.406-0.1,0.813-0.154,1.217c-0.123,0.911-0.258,1.816-0.412,2.718    c-0.012,0.07-0.025,0.138-0.037,0.208c-5.421,31.46-29.152,56.722-59.795,64.35v7.418h129.266    C406.249,274.53,422.16,258.583,442.045,256.99z"/>
<path d="M271.412,281.192c0.01-0.002,0.018-0.005,0.025-0.007c29.553-6.274,52.022-30.233,57.236-59.287    c0.016-0.091,0.033-0.184,0.049-0.275c0.151-0.864,0.283-1.734,0.404-2.606c0.048-0.355,0.093-0.712,0.136-1.068    c0.086-0.699,0.165-1.4,0.232-2.105c0.056-0.6,0.097-1.204,0.138-1.808c0.035-0.515,0.078-1.029,0.104-1.547    c0.054-1.159,0.088-2.322,0.088-3.493c0-40.679-33.119-73.772-73.829-73.772c-40.705,0-73.82,33.094-73.82,73.772    c0,1.172,0.034,2.335,0.089,3.494c0.025,0.517,0.067,1.029,0.102,1.543c0.041,0.605,0.083,1.21,0.138,1.811    c0.067,0.704,0.146,1.405,0.232,2.103c0.044,0.358,0.088,0.715,0.136,1.071c0.121,0.871,0.251,1.741,0.404,2.603    c0.016,0.094,0.033,0.187,0.049,0.28c5.213,29.052,27.681,53.011,57.228,59.285c0.007,0.001,0.015,0.004,0.021,0.006    c0.005,0.001,0.01,0.001,0.015,0.001c3.591,0.806,7.306,1.314,11.087,1.538c0.14,0.009,0.279,0.025,0.42,0.032    c1.293,0.068,2.593,0.104,3.899,0.104c1.303,0,2.598-0.036,3.883-0.104c0.32-0.017,0.633-0.051,0.951-0.071    c0.992-0.065,1.984-0.135,2.961-0.239c0.123-0.013,0.244-0.033,0.367-0.047c2.466-0.279,4.885-0.678,7.235-1.211    C271.4,281.192,271.407,281.193,271.412,281.192z M255.996,269.36c-33.875,0-61.434-27.561-61.434-61.435    c0-33.876,27.56-61.438,61.434-61.438c33.879,0,61.443,27.561,61.443,61.438C317.438,241.8,289.875,269.36,255.996,269.36z"/>
<path d="M209.44,343.658H51.386c-1.812,0-3.28,1.469-3.28,3.279c0,1.813,1.468,3.28,3.28,3.28H209.44    c1.811,0,3.28-1.468,3.28-3.28C212.72,345.127,211.251,343.658,209.44,343.658z"/>
<path d="M460.769,343.658H302.662c-1.812,0-3.279,1.469-3.279,3.279c0,1.813,1.468,3.28,3.279,3.28h158.106    c1.811,0,3.28-1.468,3.28-3.28C464.049,345.127,462.579,343.658,460.769,343.658z"/>
<path d="M209.44,361.873H51.386c-1.812,0-3.28,1.468-3.28,3.279s1.468,3.28,3.28,3.28H209.44c1.811,0,3.28-1.469,3.28-3.28    S211.251,361.873,209.44,361.873z"/>
<path d="M460.769,361.873H302.662c-1.812,0-3.279,1.468-3.279,3.279s1.468,3.28,3.279,3.28h158.106c1.811,0,3.28-1.469,3.28-3.28    S462.579,361.873,460.769,361.873z"/>
</g>
</g>
<g id="Layer_1"/>
</svg>