<?xml version="1.0" ?>
<!DOCTYPE svg  PUBLIC '-//W3C//DTD SVG 1.1//EN'  'http://www.w3.org/Graphics/SVG/1.1/DTD/svg11.dtd'>
<!-- Uploaded to: SVG Repo, www.svgrepo.com, Generator: SVG Repo Mixer Tools -->
<svg fill="#000000" width="800px" height="800px" viewBox="0 0 512 512" version="1.1" xml:space="preserve" xmlns="http://www.w3.org/2000/svg" xmlns:xlink="http://www.w3.org/1999/xlink">
<g id="A_-_143_x2C__bag_x2C__money_x2C__dollar_x2C__fund_x2C__loan">
<g>
<path d="M256.117,342.393c30.681,0,55.641-24.923,55.641-55.559c0-30.678-24.96-55.639-55.641-55.639    c-30.656,0-55.597,24.96-55.597,55.639C200.521,317.47,225.461,342.393,256.117,342.393z M242.354,282.301    c-2.308-2.883-3.502-6.427-3.502-10.548c0-4.2,1.319-7.745,4-10.627c2.637-2.803,6.138-4.451,10.504-4.945v-3.71h5.604v3.71    c4.08,0.494,7.34,1.894,9.766,4.201c2.43,2.307,3.953,5.358,4.657,9.229l-9.765,1.238c-0.615-2.967-2.146-5.027-4.658-6.099    v14.998c6.182,1.648,10.387,3.791,12.613,6.428c2.264,2.637,3.377,6.099,3.377,10.218c0,4.614-1.398,8.57-4.248,11.701    c-2.799,3.212-6.711,5.189-11.742,5.934v7.168h-5.604v-7.087c-4.409-0.494-7.991-2.144-10.752-4.944    c-2.798-2.718-4.534-6.592-5.311-11.617l10.005-1.154c0.418,2.059,1.157,3.791,2.307,5.275c1.113,1.482,2.396,2.551,3.75,3.211    v-16.067C248.375,287.411,244.705,285.268,242.354,282.301z"/>
<path d="M160.254,287.797c0.122,0.332,0.192,0.69,0.199,1.063l0.018,0.707c0.011,0.373-0.042,0.733-0.147,1.07    c0.132,0.329,0.212,0.687,0.23,1.06l0.038,0.703c0.021,0.373-0.02,0.735-0.116,1.076c0.141,0.323,0.231,0.675,0.261,1.045    l0.059,0.712c0.032,0.372,0.001,0.734-0.083,1.076c0.15,0.32,0.251,0.67,0.292,1.042l0.08,0.702    c0.043,0.371,0.023,0.734-0.052,1.08c0.161,0.316,0.272,0.664,0.323,1.036l0.1,0.693c0.054,0.37,0.045,0.734-0.02,1.082    c0.168,0.311,0.29,0.652,0.353,1.02l0.122,0.703c0.064,0.367,0.066,0.729,0.011,1.077c0.179,0.306,0.31,0.646,0.383,1.012    l0.142,0.694c0.076,0.364,0.088,0.727,0.044,1.078c0.188,0.3,0.331,0.638,0.415,1.003l0.161,0.683    c0.087,0.363,0.111,0.728,0.077,1.08c0.196,0.295,0.348,0.626,0.443,0.986l0.183,0.683c0.098,0.36,0.131,0.723,0.108,1.074    c0.206,0.289,0.368,0.617,0.474,0.976l0.203,0.678c0.108,0.356,0.152,0.717,0.14,1.07c0.213,0.281,0.384,0.603,0.5,0.955    l0.224,0.67c0.119,0.355,0.175,0.716,0.173,1.069c0.222,0.276,0.402,0.591,0.529,0.942l0.244,0.664    c0.13,0.35,0.196,0.709,0.205,1.063c0.229,0.269,0.419,0.578,0.557,0.925l0.263,0.655c0.141,0.345,0.217,0.7,0.237,1.053    c0.236,0.261,0.434,0.563,0.582,0.904l0.283,0.65c0.149,0.339,0.236,0.69,0.266,1.041c0.244,0.253,0.452,0.551,0.608,0.888    l0.301,0.639c0.16,0.336,0.257,0.685,0.298,1.035c0.25,0.245,0.466,0.535,0.633,0.866l0.323,0.634    c0.169,0.331,0.277,0.677,0.328,1.025c0.258,0.238,0.482,0.522,0.659,0.848l0.341,0.625c0.179,0.326,0.297,0.668,0.358,1.015    c0.267,0.232,0.5,0.511,0.688,0.834l0.355,0.607c0.19,0.32,0.319,0.661,0.39,1.007c0.272,0.224,0.512,0.493,0.708,0.809    l0.378,0.604c0.198,0.314,0.336,0.65,0.417,0.993c0.28,0.215,0.529,0.479,0.735,0.79l0.391,0.585    c0.209,0.311,0.358,0.642,0.45,0.984c0.287,0.206,0.544,0.465,0.759,0.771l0.409,0.574c0.216,0.302,0.375,0.63,0.476,0.968    c0.293,0.198,0.559,0.448,0.783,0.747l0.426,0.564c0.226,0.296,0.393,0.618,0.504,0.953c0.297,0.188,0.569,0.43,0.801,0.721    l0.445,0.554c0.234,0.29,0.412,0.607,0.532,0.939c0.303,0.18,0.581,0.412,0.822,0.696l0.461,0.541    c0.243,0.282,0.429,0.596,0.56,0.923c0.307,0.172,0.591,0.396,0.84,0.67l0.478,0.527c0.252,0.276,0.448,0.584,0.589,0.909    c0.313,0.161,0.604,0.378,0.861,0.646l0.496,0.516c0.259,0.269,0.462,0.569,0.612,0.888c0.317,0.153,0.615,0.36,0.879,0.621    l0.508,0.499c0.268,0.26,0.481,0.556,0.641,0.871c0.322,0.144,0.626,0.342,0.899,0.597l0.52,0.479    c0.276,0.253,0.5,0.543,0.668,0.854c0.327,0.134,0.637,0.324,0.918,0.569l0.537,0.469c0.281,0.243,0.511,0.525,0.688,0.831    c0.332,0.124,0.65,0.306,0.938,0.545l0.546,0.449c0.289,0.235,0.527,0.51,0.712,0.811c0.335,0.114,0.657,0.285,0.952,0.516    l0.563,0.436c0.295,0.228,0.541,0.494,0.736,0.789c0.338,0.104,0.665,0.268,0.966,0.487l0.573,0.417    c0.303,0.22,0.557,0.479,0.761,0.769c0.341,0.096,0.673,0.247,0.98,0.459l0.585,0.399c0.309,0.211,0.571,0.463,0.784,0.746    c0.343,0.085,0.677,0.226,0.991,0.428l0.601,0.385c0.315,0.2,0.585,0.445,0.807,0.722c0.345,0.075,0.684,0.207,1.003,0.399    l0.609,0.366c0.322,0.19,0.6,0.428,0.828,0.698c0.347,0.063,0.69,0.186,1.015,0.368l0.625,0.35c0.327,0.182,0.61,0.41,0.846,0.672    c0.35,0.054,0.696,0.166,1.026,0.339l0.633,0.329c0.332,0.172,0.622,0.392,0.866,0.648c0.351,0.042,0.701,0.144,1.037,0.308    l0.645,0.312c0.336,0.162,0.632,0.373,0.884,0.621c0.35,0.032,0.702,0.123,1.041,0.275l0.655,0.292    c0.342,0.152,0.646,0.355,0.905,0.596c0.354,0.023,0.71,0.104,1.057,0.247l0.653,0.269c0.348,0.142,0.658,0.337,0.925,0.57    c0.354,0.012,0.713,0.081,1.063,0.215l0.667,0.252c0.35,0.131,0.664,0.314,0.937,0.539c0.356,0.002,0.718,0.061,1.073,0.185    l0.667,0.229c0.355,0.121,0.676,0.296,0.957,0.513c0.355-0.011,0.721,0.038,1.079,0.153l0.673,0.209    c0.357,0.108,0.683,0.272,0.969,0.481c0.354-0.019,0.715,0.019,1.075,0.119l0.681,0.188c0.36,0.099,0.689,0.253,0.981,0.452    c0.353-0.029,0.713-0.004,1.075,0.086l0.692,0.17c0.362,0.088,0.695,0.232,0.993,0.422c0.35-0.041,0.713-0.024,1.079,0.054    l0.693,0.148c0.366,0.077,0.704,0.213,1.007,0.394c0.352-0.051,0.716-0.046,1.083,0.024l0.691,0.126    c0.368,0.065,0.71,0.19,1.02,0.362c0.348-0.063,0.709-0.067,1.077-0.011l0.706,0.107c0.369,0.056,0.713,0.171,1.026,0.333    c0.347-0.072,0.71-0.091,1.081-0.043l0.703,0.086c0.371,0.045,0.719,0.148,1.038,0.302c0.346-0.083,0.711-0.109,1.083-0.073    l0.699,0.064c0.372,0.032,0.725,0.128,1.048,0.271c0.34-0.093,0.698-0.129,1.074-0.107l0.712,0.046    c0.372,0.022,0.725,0.105,1.05,0.239c0.339-0.102,0.706-0.147,1.073-0.137l0.708,0.023c0.374,0.012,0.73,0.084,1.061,0.209    c0.327-0.109,0.677-0.168,1.041-0.168c0.01,0,0.021,0,0.031,0l0.703,0.002c0.374,0,0.734,0.063,1.069,0.179    c0.332-0.122,0.689-0.192,1.063-0.199l0.706-0.019c0.377-0.011,0.734,0.042,1.07,0.146c0.33-0.132,0.687-0.212,1.062-0.23    l0.702-0.038c0.369-0.021,0.732,0.02,1.073,0.115c0.325-0.142,0.681-0.233,1.054-0.262l0.707-0.059    c0.369-0.032,0.732-0.002,1.074,0.083c0.318-0.15,0.666-0.252,1.036-0.292l0.71-0.081c0.371-0.044,0.733-0.023,1.078,0.052    c0.314-0.159,0.662-0.271,1.031-0.322l0.7-0.101c0.368-0.055,0.732-0.046,1.08,0.021c0.312-0.171,0.657-0.293,1.026-0.355    l0.691-0.12c0.367-0.066,0.732-0.066,1.082-0.013c0.305-0.178,0.643-0.31,1.007-0.384l0.699-0.143    c0.364-0.076,0.727-0.09,1.078-0.044c0.3-0.188,0.638-0.331,1.003-0.415l0.683-0.161c0.362-0.088,0.726-0.111,1.079-0.077    c0.293-0.195,0.623-0.348,0.982-0.442l0.688-0.186c0.361-0.098,0.723-0.132,1.074-0.107c0.289-0.206,0.617-0.368,0.977-0.475    l0.671-0.201c0.356-0.109,0.711-0.155,1.073-0.143c0.281-0.213,0.604-0.385,0.959-0.501l0.67-0.224    c0.354-0.119,0.697-0.167,1.067-0.174c0.273-0.22,0.587-0.4,0.937-0.527l0.67-0.246c0.35-0.13,0.708-0.196,1.061-0.205    c0.27-0.229,0.579-0.42,0.927-0.558l0.655-0.264c0.344-0.139,0.699-0.217,1.051-0.235c0.26-0.236,0.563-0.435,0.904-0.582    l0.651-0.284c0.339-0.149,0.69-0.236,1.04-0.266c0.254-0.245,0.551-0.451,0.887-0.608l0.639-0.301    c0.336-0.161,0.686-0.259,1.035-0.3c0.246-0.251,0.535-0.466,0.867-0.634l0.635-0.322c0.33-0.17,0.676-0.278,1.023-0.327    c0.239-0.26,0.525-0.485,0.852-0.663l0.619-0.338c0.326-0.18,0.67-0.299,1.018-0.359c0.23-0.265,0.508-0.497,0.827-0.684    l0.614-0.359c0.32-0.189,0.66-0.317,1.004-0.389c0.224-0.273,0.494-0.515,0.81-0.711l0.604-0.378    c0.314-0.198,0.649-0.336,0.99-0.417c0.217-0.281,0.481-0.531,0.794-0.737l0.583-0.39c0.311-0.209,0.641-0.357,0.983-0.448    c0.207-0.288,0.465-0.546,0.771-0.762l0.571-0.406c0.304-0.218,0.632-0.376,0.97-0.478c0.199-0.295,0.45-0.561,0.752-0.785    l0.557-0.421c0.297-0.228,0.619-0.396,0.955-0.508c0.189-0.298,0.431-0.568,0.722-0.801l0.555-0.446    c0.289-0.234,0.605-0.411,0.937-0.532c0.182-0.303,0.414-0.582,0.699-0.823l0.541-0.462c0.281-0.242,0.592-0.428,0.92-0.559    c0.172-0.31,0.396-0.596,0.674-0.845l0.525-0.476c0.275-0.252,0.582-0.448,0.906-0.588c0.162-0.313,0.379-0.605,0.647-0.861    l0.513-0.493c0.268-0.26,0.568-0.465,0.889-0.615c0.153-0.317,0.361-0.616,0.621-0.881l0.5-0.508    c0.26-0.267,0.555-0.481,0.869-0.641c0.144-0.321,0.342-0.626,0.596-0.9l0.48-0.519c0.254-0.276,0.543-0.499,0.854-0.669    c0.134-0.325,0.322-0.633,0.567-0.913l0.471-0.54c0.243-0.282,0.523-0.511,0.828-0.688c0.125-0.331,0.307-0.648,0.544-0.937    l0.45-0.548c0.236-0.289,0.511-0.528,0.811-0.716c0.115-0.335,0.288-0.656,0.518-0.951l0.434-0.561    c0.227-0.295,0.494-0.542,0.788-0.737c0.105-0.339,0.267-0.666,0.489-0.968l0.416-0.573c0.219-0.303,0.479-0.559,0.768-0.762    c0.096-0.342,0.247-0.673,0.459-0.981l0.4-0.585c0.209-0.31,0.462-0.571,0.744-0.784c0.085-0.343,0.227-0.679,0.43-0.991    l0.383-0.601c0.2-0.315,0.445-0.585,0.721-0.805c0.076-0.347,0.207-0.686,0.399-1.005l0.366-0.609    c0.19-0.322,0.428-0.6,0.697-0.828c0.064-0.349,0.186-0.691,0.369-1.016l0.35-0.626c0.18-0.324,0.408-0.607,0.67-0.844    c0.054-0.35,0.165-0.697,0.339-1.029l0.329-0.632c0.172-0.332,0.393-0.622,0.648-0.866c0.042-0.352,0.145-0.701,0.308-1.036    l0.31-0.641c0.16-0.337,0.373-0.634,0.621-0.887c0.031-0.352,0.123-0.703,0.275-1.044l0.293-0.654    c0.152-0.341,0.354-0.645,0.595-0.903c0.022-0.355,0.103-0.712,0.247-1.059l0.27-0.652c0.141-0.348,0.334-0.658,0.568-0.926    c0.012-0.354,0.081-0.714,0.215-1.064l0.248-0.66c0.131-0.352,0.315-0.667,0.541-0.94c0.001-0.358,0.061-0.722,0.186-1.077    l0.229-0.666c0.119-0.354,0.295-0.675,0.512-0.955c-0.01-0.355,0.038-0.718,0.15-1.076l0.211-0.678    c0.109-0.356,0.273-0.683,0.48-0.968c-0.021-0.354,0.016-0.716,0.119-1.076l0.188-0.681c0.1-0.36,0.254-0.69,0.453-0.981    c-0.031-0.353-0.004-0.718,0.088-1.081l0.166-0.682c0.088-0.363,0.232-0.698,0.423-0.997c-0.041-0.352-0.025-0.716,0.054-1.08    l0.148-0.692c0.077-0.365,0.211-0.702,0.393-1.006c-0.052-0.352-0.047-0.718,0.021-1.085l0.127-0.691    c0.066-0.367,0.19-0.709,0.362-1.019c-0.062-0.349-0.067-0.714-0.01-1.083l0.106-0.701c0.055-0.368,0.169-0.712,0.332-1.025    c-0.072-0.347-0.09-0.71-0.043-1.081l0.086-0.703c0.045-0.37,0.148-0.719,0.302-1.036c-0.083-0.344-0.11-0.707-0.074-1.079    l0.063-0.705c0.033-0.372,0.127-0.724,0.271-1.047c-0.094-0.343-0.132-0.706-0.105-1.08l0.043-0.701    c0.022-0.373,0.104-0.728,0.24-1.055c-0.103-0.337-0.152-0.697-0.139-1.068l0.023-0.714c0.012-0.373,0.084-0.729,0.209-1.06    c-0.113-0.337-0.173-0.699-0.169-1.074l0.003-0.703c0-0.373,0.063-0.732,0.178-1.067c-0.122-0.331-0.191-0.688-0.199-1.06    l-0.018-0.712c-0.012-0.372,0.039-0.731,0.145-1.067c-0.131-0.329-0.213-0.685-0.23-1.059l-0.039-0.707    c-0.021-0.373,0.02-0.734,0.115-1.075c-0.142-0.325-0.232-0.68-0.262-1.054l-0.059-0.699c-0.033-0.372-0.002-0.735,0.082-1.079    c-0.149-0.319-0.251-0.668-0.293-1.038l-0.08-0.708c-0.043-0.37-0.023-0.732,0.051-1.076c-0.16-0.317-0.271-0.664-0.323-1.034    l-0.101-0.7c-0.055-0.369-0.045-0.732,0.02-1.079c-0.17-0.313-0.293-0.657-0.354-1.026l-0.121-0.692    c-0.065-0.368-0.067-0.732-0.013-1.081c-0.18-0.307-0.313-0.646-0.385-1.014l-0.143-0.693c-0.076-0.364-0.088-0.728-0.045-1.077    c-0.188-0.3-0.33-0.636-0.414-0.999l-0.163-0.688c-0.087-0.362-0.11-0.726-0.077-1.077c-0.197-0.295-0.35-0.628-0.444-0.989    l-0.183-0.683c-0.098-0.359-0.133-0.721-0.109-1.072c-0.206-0.289-0.369-0.616-0.475-0.977l-0.203-0.672    c-0.108-0.358-0.154-0.72-0.142-1.073c-0.212-0.28-0.382-0.6-0.499-0.952l-0.226-0.676c-0.12-0.354-0.176-0.713-0.174-1.066    c-0.222-0.273-0.401-0.588-0.528-0.937l-0.246-0.67c-0.13-0.35-0.195-0.707-0.205-1.06c-0.229-0.267-0.419-0.577-0.557-0.921    l-0.265-0.661c-0.142-0.345-0.218-0.699-0.238-1.052c-0.235-0.26-0.434-0.563-0.581-0.903l-0.283-0.647    c-0.149-0.34-0.237-0.693-0.268-1.045c-0.244-0.252-0.451-0.55-0.608-0.886l-0.302-0.639c-0.16-0.335-0.258-0.684-0.299-1.035    c-0.25-0.246-0.468-0.537-0.635-0.868l-0.323-0.635c-0.169-0.33-0.277-0.675-0.327-1.024c-0.26-0.239-0.484-0.523-0.662-0.85    l-0.339-0.62c-0.179-0.326-0.298-0.668-0.358-1.015c-0.266-0.23-0.499-0.508-0.687-0.828l-0.358-0.615    c-0.19-0.319-0.318-0.659-0.391-1.004c-0.272-0.223-0.514-0.494-0.709-0.81l-0.377-0.599c-0.198-0.315-0.338-0.652-0.419-0.995    c-0.279-0.215-0.53-0.479-0.735-0.789l-0.393-0.587c-0.208-0.31-0.357-0.641-0.449-0.982c-0.285-0.207-0.543-0.463-0.758-0.767    l-0.41-0.576c-0.217-0.304-0.375-0.63-0.477-0.969c-0.293-0.199-0.56-0.45-0.783-0.749l-0.426-0.56    c-0.225-0.295-0.393-0.618-0.505-0.953c-0.3-0.19-0.573-0.433-0.808-0.727l-0.442-0.55c-0.234-0.289-0.409-0.606-0.532-0.937    c-0.301-0.18-0.58-0.412-0.82-0.695l-0.465-0.544c-0.242-0.282-0.428-0.593-0.559-0.919c-0.31-0.172-0.596-0.397-0.846-0.675    l-0.476-0.524c-0.251-0.275-0.447-0.582-0.587-0.906c-0.313-0.162-0.605-0.378-0.862-0.647l-0.494-0.513    c-0.259-0.268-0.464-0.567-0.613-0.888c-0.318-0.153-0.618-0.361-0.884-0.623l-0.508-0.498c-0.267-0.26-0.48-0.555-0.639-0.87    c-0.323-0.144-0.629-0.342-0.902-0.597l-0.52-0.48c-0.275-0.252-0.498-0.541-0.667-0.852c-0.325-0.133-0.636-0.323-0.916-0.568    l-0.54-0.47c-0.281-0.243-0.51-0.524-0.688-0.829c-0.332-0.125-0.648-0.306-0.937-0.543l-0.548-0.449    c-0.289-0.236-0.527-0.511-0.715-0.811c-0.336-0.114-0.657-0.287-0.953-0.517l-0.557-0.43c-0.298-0.227-0.545-0.495-0.74-0.791    c-0.34-0.105-0.668-0.267-0.971-0.489l-0.572-0.417c-0.303-0.219-0.557-0.479-0.762-0.767c-0.341-0.094-0.671-0.246-0.979-0.458    l-0.587-0.402c-0.311-0.208-0.572-0.461-0.783-0.744c-0.345-0.084-0.68-0.226-0.994-0.428l-0.6-0.384    c-0.314-0.2-0.584-0.444-0.805-0.72c-0.344-0.074-0.683-0.205-1.001-0.396l-0.612-0.366c-0.323-0.191-0.602-0.428-0.83-0.699    c-0.349-0.064-0.693-0.186-1.019-0.371l-0.616-0.343c-0.327-0.181-0.613-0.411-0.851-0.674c-0.35-0.054-0.696-0.165-1.026-0.338    l-0.63-0.329c-0.333-0.171-0.624-0.392-0.87-0.647c-0.353-0.044-0.704-0.146-1.041-0.31l-0.635-0.307    c-0.339-0.161-0.637-0.374-0.89-0.622c-0.35-0.032-0.701-0.122-1.04-0.274l-0.658-0.293c-0.343-0.152-0.645-0.354-0.904-0.595    c-0.354-0.022-0.709-0.102-1.053-0.244l-0.658-0.271c-0.348-0.141-0.658-0.335-0.925-0.568c-0.353-0.011-0.708-0.08-1.058-0.212    l-0.668-0.251c-0.352-0.131-0.666-0.315-0.941-0.54c-0.355-0.001-0.717-0.06-1.072-0.183l-0.67-0.23    c-0.355-0.12-0.676-0.294-0.955-0.512c-0.357,0.011-0.715-0.037-1.07-0.148l-0.686-0.212c-0.356-0.109-0.681-0.273-0.967-0.48    c-0.353,0.022-0.713-0.017-1.072-0.117l-0.686-0.19c-0.359-0.098-0.688-0.251-0.979-0.45c-0.353,0.033-0.72,0.005-1.083-0.087    l-0.682-0.167c-0.363-0.087-0.697-0.231-0.996-0.422c-0.349,0.041-0.713,0.025-1.076-0.053l-0.697-0.149    c-0.365-0.077-0.702-0.21-1.004-0.391c-0.35,0.051-0.714,0.047-1.081-0.022l-0.696-0.127c-0.368-0.065-0.711-0.189-1.02-0.361    c-0.349,0.062-0.714,0.068-1.084,0.01l-0.694-0.106c-0.37-0.054-0.716-0.168-1.029-0.331c-0.347,0.073-0.708,0.09-1.077,0.044    l-0.709-0.087c-0.37-0.044-0.718-0.147-1.036-0.3c-0.345,0.082-0.706,0.111-1.08,0.074l-0.704-0.065    c-0.372-0.032-0.724-0.125-1.045-0.269c-0.344,0.093-0.707,0.131-1.082,0.106l-0.701-0.044c-0.373-0.021-0.727-0.104-1.055-0.239    c-0.338,0.103-0.699,0.155-1.068,0.138l-0.716-0.023c-0.372-0.012-0.729-0.084-1.058-0.208c-0.335,0.112-0.676,0.167-1.069,0.169    l-0.708-0.002c-0.347,0-0.682-0.054-0.997-0.154c-0.314,0.107-0.65,0.168-1,0.175l-0.7,0.017    c-0.376,0.012-0.735-0.042-1.073-0.147c-0.327,0.131-0.681,0.211-1.053,0.229l-0.714,0.039c-0.373,0.018-0.732-0.021-1.071-0.116    c-0.325,0.141-0.678,0.231-1.05,0.261l-0.707,0.058c-0.369,0.035-0.733,0.002-1.076-0.084c-0.321,0.152-0.674,0.252-1.046,0.293    l-0.697,0.078c-0.371,0.046-0.734,0.024-1.082-0.052c-0.316,0.16-0.664,0.272-1.035,0.323l-0.694,0.099    c-0.37,0.055-0.736,0.045-1.083-0.019c-0.31,0.167-0.651,0.289-1.017,0.351l-0.705,0.123c-0.366,0.064-0.729,0.066-1.078,0.011    c-0.305,0.178-0.645,0.31-1.011,0.383l-0.694,0.142c-0.366,0.076-0.729,0.088-1.08,0.044c-0.301,0.188-0.637,0.329-1.002,0.414    l-0.688,0.162c-0.362,0.087-0.725,0.11-1.076,0.076c-0.294,0.196-0.625,0.348-0.986,0.442l-0.683,0.183    c-0.359,0.098-0.724,0.136-1.076,0.108c-0.287,0.204-0.612,0.365-0.968,0.472l-0.684,0.205c-0.356,0.108-0.722,0.153-1.07,0.14    c-0.282,0.213-0.603,0.384-0.957,0.5l-0.675,0.224c-0.353,0.118-0.74,0.151-1.063,0.171c-0.275,0.222-0.591,0.403-0.942,0.529    l-0.669,0.246c-0.349,0.129-0.706,0.195-1.058,0.203c-0.269,0.229-0.579,0.419-0.926,0.556l-0.66,0.264    c-0.343,0.139-0.696,0.216-1.047,0.235c-0.261,0.236-0.564,0.434-0.904,0.58l-0.65,0.283c-0.34,0.15-0.692,0.237-1.042,0.266    c-0.254,0.245-0.551,0.451-0.888,0.608l-0.639,0.301c-0.336,0.16-0.686,0.258-1.036,0.298c-0.247,0.252-0.538,0.468-0.871,0.635    l-0.629,0.319c-0.332,0.17-0.678,0.278-1.027,0.329c-0.237,0.257-0.521,0.481-0.846,0.658l-0.625,0.342    c-0.326,0.179-0.669,0.297-1.017,0.357c-0.231,0.267-0.51,0.5-0.833,0.687l-0.608,0.355c-0.321,0.19-0.662,0.318-1.007,0.39    c-0.223,0.272-0.494,0.513-0.811,0.709l-0.601,0.377c-0.315,0.198-0.651,0.336-0.994,0.417c-0.214,0.279-0.479,0.528-0.789,0.733    l-0.59,0.394c-0.309,0.208-0.641,0.356-0.981,0.447c-0.208,0.286-0.464,0.543-0.77,0.758l-0.575,0.408    c-0.303,0.218-0.631,0.376-0.969,0.477c-0.199,0.292-0.448,0.557-0.747,0.781l-0.563,0.426c-0.296,0.226-0.62,0.394-0.955,0.505    c-0.19,0.299-0.433,0.572-0.727,0.806l-0.547,0.439c-0.291,0.235-0.608,0.412-0.939,0.533c-0.181,0.303-0.413,0.581-0.697,0.822    l-0.542,0.462c-0.283,0.243-0.596,0.43-0.923,0.561c-0.172,0.307-0.396,0.593-0.673,0.842l-0.527,0.478    c-0.275,0.251-0.582,0.447-0.906,0.586c-0.163,0.313-0.379,0.605-0.648,0.862l-0.513,0.493c-0.268,0.259-0.569,0.463-0.889,0.612    c-0.153,0.318-0.361,0.617-0.624,0.882l-0.496,0.504c-0.26,0.269-0.555,0.481-0.872,0.641c-0.144,0.322-0.342,0.627-0.596,0.899    l-0.486,0.525c-0.252,0.273-0.54,0.495-0.85,0.662c-0.135,0.328-0.326,0.639-0.573,0.92l-0.465,0.534    c-0.244,0.282-0.526,0.511-0.832,0.689c-0.125,0.332-0.307,0.649-0.547,0.937l-0.449,0.546c-0.235,0.289-0.51,0.527-0.81,0.713    c-0.115,0.335-0.287,0.656-0.517,0.951l-0.436,0.564c-0.227,0.295-0.495,0.542-0.79,0.737c-0.105,0.338-0.268,0.665-0.49,0.967    l-0.415,0.57c-0.218,0.303-0.48,0.558-0.769,0.762c-0.095,0.342-0.249,0.675-0.462,0.984l-0.397,0.581    c-0.209,0.31-0.463,0.572-0.746,0.785c-0.085,0.343-0.228,0.678-0.43,0.992l-0.382,0.598c-0.201,0.315-0.446,0.585-0.723,0.806    c-0.075,0.345-0.207,0.684-0.399,1.003l-0.368,0.614c-0.19,0.32-0.427,0.596-0.696,0.824c-0.064,0.347-0.186,0.689-0.368,1.013    l-0.35,0.625c-0.181,0.327-0.41,0.61-0.673,0.847c-0.053,0.349-0.165,0.695-0.338,1.025l-0.33,0.633    c-0.171,0.332-0.393,0.622-0.648,0.867c-0.044,0.35-0.145,0.699-0.308,1.034l-0.312,0.646c-0.162,0.336-0.373,0.632-0.621,0.884    c-0.033,0.354-0.124,0.708-0.279,1.05l-0.29,0.646c-0.151,0.342-0.354,0.646-0.596,0.905c-0.022,0.354-0.103,0.71-0.247,1.056    l-0.271,0.658c-0.141,0.347-0.335,0.655-0.568,0.921c-0.012,0.353-0.081,0.708-0.212,1.056l-0.254,0.673    c-0.131,0.35-0.315,0.664-0.54,0.938c-0.001,0.355-0.061,0.716-0.185,1.071l-0.231,0.673c-0.12,0.353-0.295,0.672-0.512,0.952    c0.01,0.355-0.039,0.719-0.152,1.077l-0.209,0.676c-0.109,0.356-0.273,0.681-0.481,0.968c0.02,0.354-0.018,0.718-0.121,1.078    l-0.188,0.676c-0.099,0.36-0.253,0.689-0.453,0.982c0.031,0.354,0.004,0.718-0.087,1.08l-0.169,0.687    c-0.087,0.362-0.232,0.695-0.422,0.993c0.041,0.352,0.025,0.717-0.055,1.082l-0.148,0.688c-0.077,0.365-0.211,0.704-0.393,1.007    c0.051,0.35,0.046,0.712-0.022,1.078l-0.129,0.702c-0.066,0.366-0.19,0.707-0.362,1.015c0.062,0.35,0.068,0.714,0.01,1.083    l-0.107,0.699c-0.055,0.368-0.169,0.714-0.333,1.027c0.072,0.348,0.089,0.714,0.042,1.085l-0.086,0.697    c-0.044,0.37-0.148,0.72-0.301,1.038c0.083,0.344,0.11,0.709,0.073,1.082l-0.065,0.705c-0.034,0.37-0.128,0.722-0.271,1.044    c0.092,0.341,0.13,0.701,0.105,1.071l-0.045,0.713c-0.022,0.372-0.106,0.726-0.24,1.051c0.103,0.339,0.152,0.699,0.138,1.072    l-0.024,0.709c-0.011,0.373-0.084,0.73-0.209,1.062c0.111,0.335,0.171,0.692,0.168,1.065l-0.004,0.714    C160.431,287.105,160.369,287.463,160.254,287.797z M256.117,209.228c42.795,0,77.612,34.814,77.612,77.606    c0,42.794-34.817,77.609-77.612,77.609c-42.791,0-77.604-34.815-77.604-77.609C178.513,244.042,213.326,209.228,256.117,209.228z"/>
<path d="M256.117,357.884c39.179,0,71.053-31.872,71.053-71.05c0-39.174-31.874-71.047-71.053-71.047    c-39.174,0-71.044,31.873-71.044,71.047C185.073,326.012,216.943,357.884,256.117,357.884z M256.117,224.636    c34.297,0,62.201,27.902,62.201,62.198c0,34.252-27.904,62.118-62.201,62.118c-34.273,0-62.156-27.866-62.156-62.118    C193.961,252.538,221.844,224.636,256.117,224.636z"/>
<path d="M265.472,297.793c0-1.729-0.491-3.211-1.524-4.449c-0.988-1.234-2.681-2.224-4.988-2.883v15.078    c1.94-0.41,3.501-1.319,4.703-2.717C264.892,301.338,265.472,299.69,265.472,297.793z"/>
<path d="M214.302,108.281h83.632c-2.721-15.315-2.545-36.146,1.936-65.377h-87.504C216.846,72.135,217.021,92.966,214.302,108.281    z"/>
<path d="M299.352,114.841h-86.469c-0.282,1.088-0.584,2.139-0.9,3.165h88.269C299.936,116.979,299.634,115.929,299.352,114.841z"/>
<path d="M253.355,264.586c-1.523,0.494-2.673,1.4-3.582,2.638c-0.864,1.233-1.319,2.553-1.319,4.035    c0,1.403,0.41,2.638,1.194,3.791c0.828,1.153,2.058,2.142,3.706,2.802V264.586z"/>
<path d="M150.765,428.008h210.704c11.303,0,20.498-9.211,20.498-20.533V247.776c0-67.125-23.038-79.541-45.316-91.548    c-13.434-7.24-26.48-14.279-33.993-31.663h-93.08c-7.512,17.384-20.559,24.423-33.993,31.663    c-22.279,12.007-45.316,24.423-45.316,91.548v159.699C130.268,418.797,139.463,428.008,150.765,428.008z M153.876,285.969    c0.003-0.399,0.078-0.781,0.211-1.135c-0.119-0.356-0.179-0.741-0.167-1.139l0.026-0.759c0.015-0.397,0.1-0.776,0.244-1.124    c-0.109-0.361-0.158-0.747-0.134-1.146l0.047-0.75c0.027-0.398,0.124-0.777,0.278-1.124c-0.098-0.364-0.135-0.751-0.099-1.149    l0.07-0.756c0.039-0.396,0.146-0.767,0.309-1.104c-0.088-0.367-0.114-0.754-0.066-1.15l0.093-0.759    c0.051-0.394,0.169-0.761,0.342-1.094c-0.077-0.37-0.091-0.758-0.032-1.153l0.115-0.751c0.063-0.394,0.191-0.758,0.375-1.087    c-0.066-0.371-0.068-0.762,0.003-1.154l0.136-0.742c0.073-0.393,0.213-0.756,0.408-1.079c-0.055-0.374-0.046-0.762,0.036-1.151    l0.161-0.747c0.085-0.388,0.236-0.745,0.438-1.061c-0.043-0.374-0.022-0.763,0.072-1.15l0.182-0.738    c0.097-0.386,0.258-0.738,0.469-1.049c-0.032-0.374,0-0.763,0.105-1.146l0.206-0.738c0.108-0.383,0.28-0.729,0.5-1.033    c-0.021-0.375,0.022-0.761,0.14-1.142l0.228-0.734c0.12-0.38,0.304-0.723,0.534-1.02c-0.011-0.38,0.045-0.767,0.175-1.147    l0.248-0.719c0.131-0.377,0.325-0.715,0.564-1.006c0.001-0.378,0.068-0.763,0.208-1.139l0.266-0.706    c0.143-0.376,0.348-0.71,0.598-0.997c0.013-0.378,0.091-0.76,0.243-1.131l0.29-0.703c0.154-0.369,0.368-0.695,0.624-0.971    c0.024-0.377,0.114-0.756,0.276-1.122l0.312-0.695c0.165-0.364,0.387-0.683,0.652-0.951c0.035-0.378,0.136-0.755,0.31-1.118    l0.329-0.679c0.176-0.361,0.409-0.675,0.683-0.937c0.046-0.374,0.159-0.747,0.342-1.102l0.35-0.672    c0.187-0.354,0.428-0.661,0.71-0.913c0.057-0.375,0.181-0.744,0.375-1.094l0.369-0.658c0.196-0.349,0.447-0.647,0.736-0.893    c0.069-0.372,0.204-0.738,0.409-1.083l0.388-0.647c0.207-0.342,0.467-0.634,0.762-0.87c0.08-0.368,0.224-0.729,0.438-1.065    l0.41-0.641c0.217-0.335,0.484-0.618,0.786-0.845c0.09-0.365,0.246-0.722,0.469-1.051l0.432-0.632    c0.226-0.327,0.5-0.6,0.807-0.816c0.102-0.362,0.267-0.715,0.5-1.038l0.449-0.618c0.236-0.32,0.519-0.586,0.833-0.793    c0.112-0.361,0.289-0.708,0.532-1.024l0.463-0.598c0.245-0.314,0.536-0.572,0.856-0.771c0.123-0.357,0.309-0.699,0.562-1.009    l0.483-0.587c0.254-0.306,0.552-0.554,0.876-0.742c0.133-0.353,0.33-0.688,0.591-0.99l0.5-0.572    c0.263-0.299,0.568-0.539,0.899-0.718c0.144-0.349,0.35-0.68,0.622-0.975l0.51-0.551c0.272-0.292,0.585-0.523,0.922-0.693    c0.153-0.344,0.368-0.667,0.646-0.953l0.532-0.542c0.28-0.284,0.599-0.505,0.941-0.665c0.164-0.339,0.389-0.656,0.676-0.933    l0.545-0.523c0.288-0.275,0.614-0.487,0.96-0.637c0.173-0.334,0.408-0.644,0.703-0.912l0.56-0.507    c0.297-0.266,0.629-0.469,0.979-0.608c0.183-0.33,0.426-0.631,0.729-0.891l0.573-0.49c0.305-0.258,0.643-0.451,0.997-0.58    c0.192-0.324,0.444-0.619,0.754-0.87l0.595-0.478c0.31-0.246,0.651-0.427,1.007-0.545c0.202-0.318,0.462-0.605,0.779-0.847    l0.605-0.457c0.319-0.239,0.666-0.411,1.026-0.518c0.211-0.311,0.479-0.591,0.803-0.823l0.619-0.44    c0.325-0.229,0.677-0.39,1.04-0.487c0.22-0.306,0.498-0.578,0.829-0.8l0.627-0.418c0.332-0.22,0.69-0.372,1.056-0.458    c0.229-0.298,0.515-0.562,0.852-0.774l0.64-0.4c0.338-0.209,0.7-0.35,1.069-0.426c0.237-0.29,0.529-0.544,0.872-0.747l0.655-0.384    c0.344-0.198,0.708-0.328,1.079-0.393c0.247-0.284,0.546-0.53,0.895-0.721l0.659-0.36c0.351-0.19,0.722-0.31,1.095-0.364    c0.254-0.276,0.561-0.512,0.915-0.694l0.674-0.341c0.355-0.18,0.728-0.288,1.101-0.33c0.262-0.269,0.576-0.496,0.935-0.667    l0.684-0.322c0.36-0.168,0.736-0.266,1.111-0.296c0.271-0.261,0.591-0.479,0.955-0.639l0.69-0.3    c0.365-0.158,0.743-0.244,1.119-0.265c0.278-0.252,0.605-0.461,0.975-0.61l0.704-0.281c0.371-0.147,0.752-0.222,1.128-0.231    c0.287-0.245,0.622-0.445,0.996-0.583l0.709-0.26c0.375-0.135,0.765-0.172,1.135-0.197c0.294-0.237,0.635-0.426,1.014-0.554    l0.718-0.239c0.379-0.125,0.769-0.176,1.14-0.162c0.301-0.228,0.646-0.407,1.028-0.522l0.721-0.217    c0.384-0.113,0.77-0.156,1.149-0.129c0.307-0.219,0.656-0.387,1.041-0.492l0.734-0.197c0.385-0.102,0.771-0.131,1.148-0.093    c0.314-0.209,0.669-0.368,1.058-0.461l0.74-0.174c0.387-0.09,0.774-0.106,1.147-0.059c0.319-0.2,0.679-0.347,1.069-0.428    l0.744-0.152c0.39-0.08,0.779-0.083,1.151-0.025c0.326-0.19,0.69-0.328,1.084-0.397l0.741-0.129    c0.395-0.066,0.784-0.06,1.156,0.008c0.33-0.179,0.697-0.305,1.09-0.363l0.758-0.108c0.395-0.055,0.781-0.037,1.148,0.044    c0.335-0.17,0.706-0.285,1.101-0.332l0.761-0.085c0.395-0.043,0.779-0.013,1.143,0.078c0.341-0.161,0.716-0.264,1.114-0.299    l0.756-0.063c0.396-0.03,0.783,0.009,1.145,0.111c0.347-0.15,0.725-0.244,1.124-0.266l0.751-0.04    c0.399-0.019,0.785,0.032,1.146,0.145c0.349-0.139,0.729-0.222,1.126-0.232l0.763-0.018c0.361-0.006,0.725,0.047,1.058,0.153    c0.333-0.113,0.69-0.175,1.062-0.175l0.758,0.002c0.398,0.004,0.779,0.077,1.132,0.209c0.357-0.12,0.743-0.183,1.141-0.167    l0.752,0.025c0.398,0.015,0.779,0.099,1.129,0.243c0.359-0.11,0.747-0.158,1.143-0.136l0.764,0.048    c0.395,0.027,0.77,0.123,1.111,0.275c0.363-0.1,0.748-0.137,1.148-0.102l0.756,0.069c0.396,0.039,0.77,0.146,1.109,0.309    c0.365-0.089,0.754-0.114,1.152-0.067l0.746,0.091c0.396,0.05,0.768,0.167,1.104,0.342c0.367-0.078,0.756-0.094,1.15-0.034    l0.756,0.115c0.393,0.062,0.758,0.19,1.086,0.374c0.369-0.067,0.758-0.069,1.15,0.001l0.747,0.136    c0.392,0.073,0.755,0.213,1.077,0.405c0.373-0.054,0.764-0.044,1.154,0.036l0.736,0.158c0.391,0.085,0.75,0.236,1.07,0.439    c0.371-0.044,0.76-0.023,1.147,0.07l0.743,0.183c0.385,0.096,0.736,0.257,1.047,0.467c0.376-0.033,0.764,0,1.149,0.104    l0.727,0.201c0.386,0.108,0.735,0.28,1.042,0.502c0.375-0.022,0.761,0.022,1.143,0.138l0.726,0.225    c0.382,0.12,0.729,0.303,1.028,0.535c0.375-0.013,0.766,0.045,1.145,0.173l0.723,0.248c0.376,0.131,0.713,0.324,1.004,0.563    c0.379,0.001,0.764,0.067,1.139,0.207l0.709,0.267c0.376,0.143,0.71,0.347,0.996,0.597c0.377,0.012,0.759,0.089,1.129,0.241    l0.703,0.288c0.37,0.154,0.697,0.367,0.975,0.625c0.377,0.023,0.758,0.113,1.124,0.275l0.685,0.305    c0.368,0.165,0.689,0.389,0.961,0.656c0.376,0.035,0.752,0.135,1.111,0.307l0.69,0.333c0.358,0.175,0.67,0.406,0.931,0.678    c0.373,0.046,0.747,0.157,1.102,0.34l0.674,0.351c0.355,0.186,0.66,0.427,0.915,0.708c0.372,0.057,0.739,0.18,1.089,0.372    l0.668,0.374c0.348,0.196,0.646,0.446,0.891,0.733c0.369,0.069,0.733,0.203,1.076,0.405l0.65,0.389    c0.344,0.207,0.636,0.466,0.871,0.762c0.37,0.079,0.732,0.225,1.07,0.438l0.639,0.408c0.335,0.216,0.618,0.483,0.845,0.785    c0.366,0.09,0.724,0.245,1.054,0.47l0.627,0.426c0.328,0.226,0.604,0.501,0.821,0.809c0.363,0.102,0.716,0.267,1.04,0.501    l0.615,0.446c0.32,0.235,0.586,0.517,0.794,0.83c0.36,0.112,0.706,0.288,1.022,0.529l0.605,0.467    c0.314,0.245,0.57,0.535,0.77,0.854c0.357,0.123,0.698,0.309,1.008,0.561l0.588,0.482c0.307,0.254,0.555,0.552,0.744,0.877    c0.354,0.133,0.69,0.33,0.993,0.591l0.565,0.493c0.301,0.264,0.542,0.57,0.723,0.902c0.348,0.143,0.678,0.348,0.971,0.617    l0.559,0.516c0.291,0.271,0.523,0.583,0.691,0.92c0.346,0.153,0.67,0.369,0.955,0.648l0.54,0.528    c0.284,0.28,0.505,0.6,0.666,0.941c0.34,0.163,0.657,0.388,0.934,0.674l0.523,0.544c0.276,0.288,0.489,0.614,0.639,0.96    c0.335,0.173,0.645,0.406,0.913,0.701l0.51,0.562c0.267,0.297,0.468,0.627,0.607,0.976c0.331,0.184,0.635,0.428,0.895,0.731    l0.488,0.57c0.259,0.305,0.453,0.642,0.582,0.997c0.324,0.193,0.62,0.446,0.871,0.756l0.477,0.591    c0.246,0.311,0.428,0.651,0.545,1.006c0.318,0.201,0.606,0.461,0.848,0.778l0.461,0.608c0.238,0.318,0.41,0.664,0.517,1.022    c0.312,0.21,0.593,0.479,0.823,0.802l0.44,0.618c0.229,0.325,0.392,0.677,0.489,1.041c0.305,0.219,0.577,0.496,0.799,0.826    l0.42,0.629c0.221,0.332,0.372,0.689,0.459,1.054c0.297,0.23,0.561,0.514,0.774,0.851l0.401,0.64    c0.21,0.338,0.352,0.699,0.427,1.068c0.293,0.238,0.548,0.531,0.751,0.874l0.379,0.648c0.201,0.344,0.33,0.71,0.396,1.081    c0.285,0.247,0.531,0.547,0.725,0.896l0.363,0.663c0.188,0.35,0.307,0.719,0.361,1.09c0.277,0.254,0.515,0.562,0.695,0.916    l0.341,0.669c0.18,0.355,0.288,0.728,0.331,1.102c0.27,0.263,0.498,0.576,0.668,0.936l0.322,0.683    c0.17,0.36,0.268,0.736,0.299,1.11c0.26,0.27,0.478,0.589,0.639,0.952l0.302,0.693c0.157,0.365,0.245,0.743,0.266,1.118    c0.253,0.278,0.462,0.604,0.609,0.972l0.282,0.701c0.148,0.372,0.223,0.754,0.232,1.131c0.246,0.287,0.446,0.621,0.586,0.995    l0.258,0.707c0.138,0.376,0.202,0.761,0.2,1.14c0.237,0.293,0.427,0.632,0.554,1.01l0.24,0.716    c0.125,0.381,0.177,0.767,0.164,1.145c0.227,0.299,0.406,0.643,0.522,1.024l0.22,0.732c0.113,0.381,0.152,0.766,0.129,1.14    c0.219,0.309,0.389,0.658,0.494,1.045l0.196,0.734c0.101,0.384,0.13,0.771,0.095,1.144c0.209,0.313,0.368,0.668,0.461,1.056    l0.174,0.739c0.092,0.39,0.108,0.777,0.061,1.15c0.201,0.32,0.35,0.681,0.431,1.071l0.153,0.744    c0.077,0.389,0.082,0.776,0.025,1.148c0.191,0.324,0.328,0.688,0.398,1.08l0.131,0.754c0.066,0.392,0.06,0.777-0.009,1.146    c0.181,0.331,0.308,0.699,0.366,1.094l0.107,0.752c0.055,0.395,0.037,0.78-0.042,1.148c0.171,0.337,0.286,0.708,0.333,1.105    l0.084,0.749c0.045,0.396,0.018,0.785-0.074,1.151c0.16,0.34,0.266,0.714,0.3,1.11l0.063,0.764    c0.031,0.395-0.009,0.78-0.111,1.142c0.151,0.345,0.244,0.723,0.268,1.12l0.041,0.757c0.02,0.398-0.032,0.782-0.144,1.142    c0.141,0.35,0.224,0.73,0.234,1.131l0.019,0.749c0.01,0.4-0.054,0.785-0.176,1.143c0.129,0.353,0.2,0.734,0.2,1.132l-0.003,0.766    c-0.004,0.396-0.078,0.775-0.211,1.125c0.121,0.359,0.18,0.743,0.169,1.143l-0.026,0.752c-0.014,0.398-0.098,0.778-0.242,1.128    c0.109,0.36,0.158,0.744,0.135,1.142l-0.047,0.764c-0.027,0.395-0.123,0.77-0.277,1.114c0.1,0.362,0.137,0.748,0.102,1.146    l-0.07,0.756c-0.037,0.397-0.145,0.771-0.309,1.109c0.09,0.368,0.115,0.756,0.067,1.151l-0.093,0.754    c-0.051,0.395-0.167,0.765-0.342,1.098c0.078,0.37,0.092,0.76,0.033,1.155l-0.115,0.75c-0.063,0.393-0.189,0.758-0.373,1.086    c0.066,0.37,0.068,0.76-0.002,1.151l-0.137,0.752c-0.074,0.39-0.214,0.751-0.406,1.072c0.057,0.374,0.047,0.763-0.035,1.153    l-0.159,0.742c-0.085,0.389-0.236,0.748-0.438,1.064c0.044,0.373,0.023,0.761-0.069,1.147l-0.183,0.744    c-0.097,0.385-0.258,0.736-0.469,1.048c0.031,0.375,0,0.762-0.105,1.146l-0.203,0.733c-0.108,0.382-0.279,0.729-0.5,1.034    c0.021,0.377-0.021,0.763-0.139,1.145l-0.227,0.729c-0.119,0.382-0.303,0.726-0.534,1.024c0.01,0.377-0.045,0.764-0.173,1.144    l-0.25,0.728c-0.131,0.375-0.323,0.711-0.563,1.001c0,0.378-0.066,0.762-0.206,1.137l-0.271,0.716    c-0.143,0.373-0.346,0.705-0.594,0.99c-0.013,0.377-0.09,0.757-0.24,1.127l-0.291,0.708c-0.154,0.368-0.367,0.694-0.623,0.971    c-0.023,0.377-0.113,0.758-0.275,1.123l-0.309,0.689c-0.164,0.366-0.387,0.688-0.654,0.956c-0.034,0.377-0.135,0.754-0.308,1.115    l-0.331,0.684c-0.174,0.359-0.406,0.672-0.682,0.934c-0.045,0.376-0.158,0.749-0.342,1.105l-0.35,0.671    c-0.186,0.354-0.426,0.659-0.707,0.912c-0.057,0.374-0.181,0.745-0.375,1.097l-0.369,0.657c-0.196,0.35-0.447,0.648-0.735,0.894    c-0.068,0.37-0.202,0.735-0.405,1.08l-0.39,0.651c-0.207,0.341-0.466,0.632-0.761,0.867c-0.08,0.37-0.225,0.731-0.438,1.069    l-0.408,0.637c-0.217,0.337-0.484,0.619-0.785,0.847c-0.092,0.366-0.247,0.723-0.471,1.053l-0.429,0.628    c-0.226,0.328-0.501,0.603-0.81,0.82c-0.1,0.364-0.267,0.716-0.5,1.039l-0.446,0.615c-0.235,0.321-0.519,0.588-0.832,0.794    c-0.112,0.361-0.287,0.708-0.53,1.025l-0.465,0.602c-0.246,0.313-0.536,0.571-0.855,0.77c-0.123,0.356-0.309,0.698-0.561,1.007    l-0.482,0.587c-0.254,0.308-0.551,0.557-0.877,0.745c-0.133,0.354-0.329,0.69-0.591,0.994l-0.494,0.565    c-0.264,0.302-0.571,0.543-0.903,0.723c-0.143,0.348-0.348,0.677-0.616,0.969l-0.517,0.558c-0.27,0.293-0.583,0.523-0.92,0.693    c-0.154,0.345-0.369,0.669-0.648,0.954l-0.527,0.54c-0.281,0.283-0.601,0.506-0.941,0.666c-0.164,0.339-0.389,0.655-0.675,0.933    l-0.544,0.523c-0.289,0.276-0.615,0.489-0.961,0.64c-0.174,0.333-0.406,0.643-0.701,0.911l-0.563,0.51    c-0.297,0.267-0.627,0.469-0.977,0.608c-0.184,0.33-0.428,0.634-0.73,0.894l-0.573,0.49c-0.304,0.258-0.642,0.45-0.995,0.579    c-0.193,0.323-0.445,0.62-0.755,0.871l-0.589,0.472c-0.311,0.249-0.654,0.433-1.011,0.551c-0.201,0.317-0.461,0.604-0.776,0.845    l-0.611,0.463c-0.316,0.237-0.662,0.408-1.021,0.516c-0.21,0.312-0.479,0.59-0.801,0.822L315,370.419    c-0.325,0.228-0.677,0.389-1.038,0.487c-0.221,0.304-0.497,0.575-0.827,0.798l-0.633,0.423c-0.331,0.219-0.686,0.369-1.051,0.455    c-0.23,0.301-0.516,0.564-0.854,0.777l-0.636,0.398c-0.338,0.21-0.7,0.352-1.068,0.427c-0.238,0.292-0.53,0.548-0.875,0.75    l-0.646,0.38c-0.346,0.2-0.712,0.332-1.084,0.396c-0.246,0.284-0.546,0.53-0.894,0.723l-0.663,0.362    c-0.35,0.188-0.719,0.308-1.09,0.362c-0.256,0.276-0.563,0.515-0.918,0.695l-0.668,0.341c-0.356,0.179-0.73,0.288-1.104,0.331    c-0.263,0.269-0.575,0.496-0.933,0.666l-0.684,0.323c-0.36,0.169-0.736,0.267-1.111,0.298c-0.271,0.262-0.592,0.479-0.955,0.64    l-0.689,0.301c-0.363,0.157-0.742,0.243-1.117,0.266c-0.279,0.251-0.604,0.459-0.971,0.609l-0.707,0.283    c-0.371,0.146-0.752,0.222-1.129,0.23c-0.285,0.245-0.619,0.445-0.992,0.583l-0.707,0.259c-0.378,0.139-0.801,0.188-1.141,0.2    c-0.293,0.236-0.633,0.426-1.01,0.554l-0.723,0.24c-0.378,0.125-0.764,0.172-1.138,0.163c-0.3,0.227-0.645,0.406-1.024,0.523    l-0.732,0.22c-0.382,0.112-0.77,0.151-1.143,0.128c-0.307,0.218-0.656,0.387-1.043,0.492l-0.729,0.195    c-0.387,0.102-0.774,0.131-1.151,0.096c-0.313,0.209-0.666,0.367-1.054,0.461l-0.745,0.176c-0.388,0.089-0.773,0.106-1.146,0.059    c-0.32,0.2-0.68,0.348-1.071,0.43l-0.737,0.15c-0.392,0.079-0.783,0.087-1.154,0.028c-0.326,0.189-0.689,0.325-1.08,0.396    l-0.754,0.131c-0.391,0.066-0.777,0.061-1.147-0.008c-0.33,0.181-0.698,0.307-1.092,0.365l-0.752,0.107    c-0.396,0.056-0.783,0.037-1.151-0.043c-0.337,0.171-0.707,0.285-1.104,0.332l-0.748,0.085c-0.396,0.044-0.787,0.015-1.154-0.076    c-0.341,0.161-0.717,0.266-1.115,0.3l-0.756,0.063c-0.395,0.031-0.78-0.009-1.141-0.109c-0.346,0.15-0.723,0.244-1.121,0.267    l-0.764,0.041c-0.398,0.019-0.778-0.032-1.137-0.145c-0.35,0.142-0.73,0.223-1.129,0.234l-0.756,0.019    c-0.396-0.006-0.781-0.055-1.137-0.178c-0.353,0.13-0.734,0.2-1.132,0.2l-0.764-0.003c-0.397-0.004-0.777-0.078-1.128-0.21    c-0.357,0.119-0.74,0.177-1.139,0.167l-0.758-0.026c-0.398-0.015-0.777-0.1-1.125-0.242c-0.361,0.109-0.749,0.157-1.146,0.134    l-0.751-0.048c-0.398-0.025-0.775-0.122-1.121-0.276c-0.363,0.099-0.748,0.139-1.146,0.101l-0.762-0.07    c-0.395-0.038-0.766-0.146-1.104-0.31c-0.366,0.088-0.754,0.114-1.15,0.067l-0.752-0.093c-0.396-0.049-0.766-0.168-1.1-0.342    c-0.37,0.077-0.759,0.091-1.153,0.032l-0.744-0.113c-0.396-0.063-0.763-0.191-1.093-0.375c-0.371,0.065-0.759,0.067-1.151-0.002    l-0.752-0.138c-0.391-0.073-0.752-0.214-1.075-0.406c-0.373,0.055-0.76,0.044-1.15-0.036l-0.742-0.159    c-0.39-0.086-0.748-0.236-1.065-0.439c-0.375,0.044-0.764,0.023-1.152-0.071l-0.732-0.18c-0.388-0.097-0.742-0.259-1.053-0.471    c-0.375,0.032-0.763,0.001-1.147-0.105l-0.733-0.203c-0.384-0.108-0.732-0.28-1.037-0.502c-0.374,0.019-0.761-0.021-1.142-0.139    l-0.735-0.228c-0.38-0.12-0.722-0.304-1.02-0.534c-0.38,0.012-0.763-0.045-1.142-0.172l-0.726-0.25    c-0.376-0.131-0.713-0.324-1.004-0.563c-0.379-0.001-0.764-0.068-1.14-0.209l-0.711-0.268c-0.373-0.143-0.705-0.346-0.989-0.595    c-0.377-0.013-0.758-0.09-1.128-0.241l-0.708-0.291c-0.369-0.153-0.695-0.367-0.971-0.624c-0.377-0.023-0.756-0.113-1.122-0.275    l-0.69-0.308c-0.366-0.165-0.688-0.39-0.958-0.656c-0.377-0.035-0.754-0.136-1.115-0.31l-0.679-0.329    c-0.36-0.175-0.673-0.407-0.935-0.682c-0.375-0.046-0.75-0.157-1.105-0.342l-0.671-0.35c-0.354-0.187-0.66-0.428-0.913-0.709    c-0.374-0.058-0.744-0.181-1.094-0.375l-0.658-0.368c-0.349-0.197-0.648-0.448-0.893-0.736c-0.371-0.068-0.736-0.202-1.079-0.405    l-0.651-0.39c-0.343-0.207-0.634-0.467-0.87-0.763c-0.368-0.079-0.729-0.224-1.066-0.438l-0.638-0.408    c-0.336-0.216-0.619-0.483-0.846-0.787c-0.366-0.089-0.723-0.245-1.053-0.468l-0.627-0.429c-0.329-0.227-0.603-0.501-0.82-0.809    c-0.363-0.102-0.715-0.268-1.039-0.502l-0.614-0.446c-0.322-0.236-0.588-0.52-0.796-0.834c-0.361-0.112-0.708-0.288-1.026-0.532    l-0.598-0.463c-0.314-0.245-0.572-0.536-0.771-0.856c-0.357-0.122-0.699-0.309-1.009-0.562l-0.587-0.483    c-0.306-0.254-0.553-0.551-0.742-0.876c-0.353-0.132-0.689-0.329-0.991-0.59l-0.569-0.496c-0.3-0.264-0.54-0.57-0.72-0.902    c-0.348-0.142-0.677-0.348-0.97-0.616l-0.558-0.515c-0.292-0.272-0.524-0.586-0.694-0.923c-0.344-0.153-0.667-0.369-0.953-0.647    l-0.539-0.528c-0.285-0.281-0.507-0.602-0.667-0.943c-0.34-0.163-0.657-0.389-0.935-0.676l-0.52-0.541    c-0.276-0.289-0.49-0.615-0.64-0.963c-0.333-0.172-0.643-0.406-0.911-0.699l-0.507-0.561c-0.269-0.296-0.472-0.629-0.612-0.981    c-0.329-0.184-0.632-0.427-0.892-0.729l-0.49-0.574c-0.258-0.305-0.451-0.642-0.58-0.996c-0.323-0.193-0.618-0.444-0.869-0.754    l-0.473-0.589c-0.249-0.311-0.432-0.654-0.55-1.012c-0.318-0.201-0.606-0.463-0.847-0.78l-0.457-0.604    c-0.238-0.317-0.41-0.664-0.518-1.024c-0.313-0.211-0.592-0.48-0.825-0.804l-0.44-0.62c-0.228-0.324-0.39-0.675-0.486-1.038    c-0.305-0.219-0.575-0.495-0.797-0.825l-0.422-0.631c-0.22-0.332-0.371-0.689-0.458-1.057c-0.299-0.229-0.563-0.514-0.775-0.852    l-0.398-0.636c-0.21-0.34-0.352-0.702-0.428-1.072c-0.291-0.237-0.545-0.529-0.747-0.872l-0.384-0.655    c-0.198-0.343-0.328-0.707-0.393-1.076c-0.285-0.247-0.531-0.547-0.723-0.896l-0.36-0.659c-0.19-0.351-0.31-0.721-0.364-1.094    c-0.276-0.255-0.513-0.562-0.694-0.916l-0.34-0.668c-0.18-0.356-0.289-0.73-0.332-1.104c-0.269-0.263-0.496-0.575-0.667-0.936    l-0.322-0.684c-0.168-0.36-0.265-0.734-0.297-1.108c-0.261-0.271-0.479-0.592-0.639-0.956l-0.301-0.689    c-0.158-0.366-0.244-0.743-0.264-1.118c-0.252-0.277-0.46-0.604-0.609-0.971l-0.284-0.706c-0.146-0.371-0.221-0.752-0.23-1.13    c-0.245-0.285-0.444-0.618-0.583-0.991l-0.262-0.715c-0.136-0.375-0.199-0.759-0.197-1.135c-0.235-0.293-0.425-0.632-0.552-1.008    l-0.24-0.722c-0.125-0.38-0.176-0.766-0.163-1.143c-0.228-0.301-0.407-0.646-0.523-1.027l-0.218-0.727    c-0.112-0.383-0.152-0.768-0.128-1.143c-0.219-0.308-0.388-0.657-0.492-1.043l-0.196-0.734c-0.102-0.384-0.13-0.772-0.094-1.146    c-0.209-0.313-0.367-0.667-0.46-1.054l-0.176-0.745c-0.089-0.388-0.106-0.774-0.059-1.146c-0.2-0.32-0.348-0.681-0.43-1.071    l-0.152-0.744c-0.078-0.391-0.083-0.778-0.026-1.15c-0.19-0.326-0.327-0.69-0.397-1.084l-0.128-0.741    c-0.067-0.395-0.062-0.783,0.008-1.154c-0.18-0.331-0.307-0.698-0.365-1.093l-0.108-0.758c-0.054-0.394-0.036-0.779,0.043-1.146    c-0.17-0.336-0.285-0.706-0.332-1.103l-0.085-0.755c-0.043-0.396-0.014-0.782,0.077-1.147c-0.16-0.342-0.264-0.717-0.299-1.115    l-0.063-0.75c-0.032-0.398,0.008-0.785,0.111-1.149c-0.15-0.344-0.243-0.722-0.266-1.118l-0.042-0.764    c-0.019-0.396,0.033-0.781,0.145-1.139c-0.14-0.35-0.222-0.729-0.233-1.127l-0.018-0.756c-0.008-0.399,0.055-0.781,0.178-1.139    c-0.131-0.354-0.202-0.737-0.201-1.137L153.876,285.969z"/>
<path d="M421.023,125.063c-0.021-0.027-0.049-0.047-0.07-0.074c-0.07-0.086-0.148-0.165-0.228-0.244    c-0.081-0.082-0.161-0.162-0.249-0.233c-0.026-0.021-0.045-0.047-0.072-0.067c-0.055-0.042-0.114-0.067-0.17-0.104    c-0.099-0.066-0.197-0.131-0.303-0.186c-0.092-0.048-0.186-0.088-0.281-0.126c-0.1-0.042-0.199-0.08-0.302-0.111    c-0.104-0.03-0.207-0.052-0.312-0.072c-0.102-0.02-0.204-0.038-0.309-0.048c-0.104-0.01-0.207-0.012-0.31-0.012    c-0.108-0.001-0.216,0.002-0.322,0.012c-0.101,0.01-0.2,0.028-0.298,0.047c-0.107,0.02-0.214,0.043-0.32,0.074    c-0.1,0.03-0.198,0.068-0.297,0.109c-0.096,0.039-0.191,0.079-0.285,0.128c-0.104,0.054-0.203,0.119-0.302,0.186    c-0.055,0.037-0.115,0.062-0.169,0.104c-0.025,0.02-0.046,0.046-0.072,0.067c-0.088,0.071-0.168,0.153-0.25,0.234    c-0.078,0.079-0.158,0.156-0.227,0.242c-0.021,0.027-0.049,0.047-0.07,0.075l-15.081,19.777c-1.099,1.44-0.821,3.499,0.62,4.597    c0.594,0.453,1.293,0.671,1.985,0.671c0.988,0,1.966-0.445,2.61-1.29l9.193-12.056v292.795c0,1.812,1.469,3.28,3.28,3.28    s3.28-1.469,3.28-3.28V136.763l9.193,12.056c0.646,0.846,1.623,1.29,2.611,1.29c0.693,0,1.393-0.219,1.986-0.671    c1.439-1.098,1.717-3.156,0.619-4.597L421.023,125.063z"/>
<path d="M474.131,232.019l-15.081-19.693c-0.019-0.025-0.043-0.042-0.063-0.066c-0.071-0.088-0.153-0.168-0.234-0.25    c-0.079-0.08-0.158-0.16-0.245-0.23c-0.024-0.019-0.042-0.044-0.067-0.063c-0.056-0.042-0.116-0.069-0.173-0.106    c-0.1-0.067-0.198-0.133-0.303-0.188c-0.094-0.048-0.189-0.088-0.284-0.126c-0.099-0.041-0.196-0.08-0.3-0.111    c-0.104-0.031-0.21-0.053-0.316-0.073c-0.101-0.019-0.199-0.038-0.301-0.047c-0.107-0.01-0.213-0.012-0.32-0.012    c-0.104,0-0.207,0.002-0.313,0.012c-0.104,0.01-0.205,0.028-0.307,0.048c-0.105,0.02-0.208,0.041-0.312,0.072    c-0.104,0.03-0.203,0.07-0.304,0.112c-0.094,0.038-0.188,0.077-0.28,0.125c-0.104,0.055-0.205,0.121-0.306,0.188    c-0.056,0.038-0.116,0.064-0.171,0.106c-0.026,0.019-0.044,0.044-0.067,0.063c-0.088,0.07-0.166,0.15-0.246,0.23    c-0.081,0.082-0.162,0.162-0.234,0.25c-0.019,0.024-0.043,0.041-0.062,0.066l-15.083,19.693c-1.102,1.438-0.828,3.497,0.609,4.598    c0.596,0.456,1.297,0.676,1.992,0.676c0.986,0,1.961-0.443,2.605-1.286l9.199-12.011v205.562c0,1.812,1.469,3.28,3.28,3.28    s3.28-1.469,3.28-3.28V223.997l9.197,12.01c0.646,0.843,1.62,1.286,2.606,1.286c0.695,0,1.396-0.221,1.991-0.676    C474.96,235.516,475.232,233.457,474.131,232.019z"/>
<path d="M76.55,149.438c0.594,0.453,1.293,0.671,1.987,0.671c0.988,0,1.965-0.445,2.61-1.29l9.194-12.056v292.795    c0,1.812,1.468,3.28,3.28,3.28s3.28-1.469,3.28-3.28V136.786l9.147,12.029c0.645,0.849,1.623,1.294,2.613,1.294    c0.691,0,1.39-0.218,1.983-0.669c1.442-1.096,1.722-3.153,0.625-4.596l-15.038-19.777c-0.021-0.027-0.048-0.048-0.069-0.075    c-0.07-0.086-0.15-0.166-0.23-0.246s-0.16-0.161-0.247-0.231c-0.027-0.022-0.047-0.048-0.075-0.069    c-0.053-0.041-0.112-0.066-0.167-0.103c-0.099-0.067-0.198-0.132-0.303-0.187c-0.092-0.048-0.186-0.088-0.28-0.126    c-0.1-0.042-0.199-0.08-0.302-0.111c-0.104-0.031-0.208-0.053-0.314-0.074c-0.101-0.019-0.2-0.037-0.302-0.047    c-0.107-0.01-0.213-0.013-0.319-0.013c-0.104,0-0.208,0.002-0.313,0.012c-0.104,0.01-0.205,0.027-0.308,0.047    c-0.104,0.02-0.207,0.042-0.31,0.072c-0.104,0.031-0.204,0.07-0.305,0.111c-0.094,0.039-0.188,0.078-0.28,0.126    c-0.104,0.054-0.204,0.119-0.303,0.186c-0.055,0.037-0.114,0.062-0.167,0.103c-0.028,0.021-0.048,0.047-0.075,0.069    c-0.086,0.071-0.166,0.15-0.247,0.23c-0.081,0.081-0.161,0.161-0.231,0.248c-0.021,0.026-0.048,0.046-0.069,0.074l-15.082,19.777    C74.833,146.281,75.109,148.339,76.55,149.438z"/>
<path d="M43.077,236.007l9.197-12.01v205.561c0,1.812,1.468,3.28,3.28,3.28s3.28-1.469,3.28-3.28V224l9.19,12.006    c0.646,0.844,1.621,1.287,2.607,1.287c0.695,0,1.396-0.221,1.991-0.675c1.438-1.102,1.712-3.16,0.611-4.599l-15.075-19.692    c-0.02-0.026-0.044-0.044-0.065-0.069c-0.07-0.086-0.15-0.166-0.23-0.246c-0.08-0.081-0.159-0.161-0.246-0.231    c-0.025-0.02-0.043-0.045-0.069-0.064c-0.056-0.043-0.118-0.07-0.175-0.108c-0.098-0.066-0.196-0.131-0.3-0.185    c-0.094-0.049-0.189-0.089-0.287-0.129c-0.098-0.04-0.195-0.079-0.296-0.109c-0.105-0.031-0.211-0.053-0.319-0.073    c-0.1-0.019-0.198-0.038-0.299-0.048c-0.107-0.01-0.213-0.012-0.32-0.012c-0.104,0-0.208,0.002-0.313,0.012    c-0.104,0.01-0.205,0.029-0.307,0.049c-0.105,0.02-0.209,0.041-0.312,0.071c-0.104,0.031-0.203,0.07-0.304,0.112    c-0.095,0.038-0.188,0.077-0.28,0.125c-0.105,0.055-0.204,0.121-0.304,0.188c-0.057,0.037-0.118,0.064-0.173,0.106    c-0.026,0.02-0.044,0.045-0.069,0.065c-0.086,0.07-0.166,0.15-0.246,0.23c-0.081,0.081-0.161,0.16-0.232,0.247    c-0.02,0.025-0.044,0.043-0.064,0.068l-15.081,19.693c-1.102,1.438-0.829,3.497,0.61,4.598c0.595,0.456,1.296,0.676,1.992,0.676    C41.456,237.293,42.431,236.85,43.077,236.007z"/>
<path d="M90.779,446.879c-1.812,0-3.28,1.469-3.28,3.279c0,1.812,1.468,3.28,3.28,3.28h218.331c1.811,0,3.279-1.469,3.279-3.28    c0-1.811-1.469-3.279-3.279-3.279H90.779z"/>
<path d="M380.305,462.536H202.848c-1.812,0-3.28,1.469-3.28,3.28c0,1.811,1.468,3.279,3.28,3.279h177.457    c1.812,0,3.279-1.469,3.279-3.279C383.584,464.005,382.116,462.536,380.305,462.536z"/>
<path d="M420.643,462.536h-22.209c-1.811,0-3.279,1.469-3.279,3.28c0,1.811,1.469,3.279,3.279,3.279h22.209    c1.811,0,3.279-1.469,3.279-3.279C423.922,464.005,422.453,462.536,420.643,462.536z"/>
<path d="M126.707,462.042H42.611c-1.812,0-3.28,1.469-3.28,3.28c0,1.811,1.469,3.279,3.28,3.279h84.096    c1.812,0,3.28-1.469,3.28-3.279C129.987,463.511,128.519,462.042,126.707,462.042z"/>
</g>
</g>
<g id="Layer_1"/>
</svg>